<svg id="default_linkedin" data-name="default/linkedin" xmlns="http://www.w3.org/2000/svg" width="23" height="22" viewBox="0 0 23 22">
  <path id="Shape_Copy_3" data-name="Shape Copy 3" d="M18.069,22V14.058c0-1.994-.712-3.356-2.5-3.356a2.7,2.7,0,0,0-2.529,1.8,3.383,3.383,0,0,0-.163,1.2V22H7.949s.066-13.451,0-14.845H12.88v2.1c-.01.016-.023.032-.032.049h.032V9.259a4.895,4.895,0,0,1,4.444-2.452C20.568,6.807,23,8.929,23,13.487V22ZM.293,22V7.155H5.223V22ZM2.725,5.13A2.572,2.572,0,1,1,2.79,0a2.573,2.573,0,1,1-.032,5.13Z" fill="#0075b4"/>
</svg>
